<svg id="Layer_1" data-name="Layer 1" xmlns="http://www.w3.org/2000/svg" viewBox="0 0 333.53 110.46"><title>Untitled-1</title><path d="M181.25,184.48c-10.11-1.27-39.39,49.5-21.07,60.87,3.58,2.11,18.33,2.32,25.28-19.17,2.11-1.68,5.69.22,5.06,7.17-.43,7-7.17,24-25.49,24.85-22.54,1.06-26.54-18.74-23.81-31,3.59-16.85,21.28-53.93,39.82-54.14,14.53-.21,14.53,17.48,12.85,22.33-1.48,4.84-6.74,5.69-7.38,2.95C186.51,198.38,189,185.32,181.25,184.48Z" transform="translate(-140.47 -171.68)"/><path d="M227.38,201.75c-.42-5.48-9.06-2.74-15.59,13.27-5.9,14.32-5.69,24.65-2.11,25.91,3.59,1,8.64-7,13.91-20,4.42-11.17,8.21-12.64,12.21-10.11,1.27.84,3.16,2.52,2.32,3.58-6.32,9.48-8.64,25.28-4.84,26.33,4.84,1.26,13.9-19.17,14.95-23.59,0-.64.85-1.06,1.27-.64a6,6,0,0,1,2.1,5.48c-2.1,10.32-12.21,28.65-21.27,28-7.37,0-8.64-8.43-8.64-8.43s-2.32,6.32-8.64,7.8c-13.69,2.73-23-9.06-12.42-35.39,12.21-30.55,35-23.81,34.75-13.27-.21,7.58-5,7.37-7.37,6.74-.84-.21-1.9-1.27-1.47-1.9A7.23,7.23,0,0,0,227.38,201.75Z" transform="translate(-140.47 -171.68)"/><path d="M281.51,221.13c-4.21,13.06-11.16,24-20.43,27.59a20.62,20.62,0,0,1-10.53.85,12.45,12.45,0,0,1-9.9-12.64c0-2.74,6.11-28.44,9.06-41.5.42-1.69.63-3.16,1-4.63a23,23,0,0,1-6.32.63c-5.27,0-4.21-4.85-2.11-7,0,0,3.16.21,10.11-1.48.85-5.05,1.27-8,1.06-9.69,0-.21,0-.42.21-.42,1-.84,3.16-3.16,8.64,2.32.42.63.63,2.31.21,4.84,4.21-1.05,7.37-1.05,9.69,2.74,1.47,2.11.42,5.06-.21,6.32a.78.78,0,0,1-1.06.42c-1.26-.63-3-1.47-8.63-.84a2.34,2.34,0,0,1-1.06.21c-2.53,13.06-7.37,31.81-8.42,39.39-1.48,11.38.63,14.32,5.47,13.48,7.8-1.05,15.17-13.69,18.33-22.33C278.14,214.6,281.94,218,281.51,221.13Z" transform="translate(-140.47 -171.68)"/><path d="M315.64,206.38c-.84,2.11-6.53,24.23-9.06,32.86-2.32,8.64-9.27,39.82-22.54,42.56-10.11,2.1-12.64-6.11-11.8-9.69a1.46,1.46,0,0,1,2.11-1.06,6.55,6.55,0,0,0,8.43-1.26c5.68-5.69,9.9-21.28,11.79-27.39,0-.21,0-.21-.21-.21-1.47,3.16-9.27,8.85-15.37,6.32-14.12-4.63-13.06-17.9-4.22-36.86,8.64-18.75,19.38-22.54,27.39-19.38,6.11,2.53,4.63,11.8,4.63,11.8C311.43,199.22,316.27,204.07,315.64,206.38ZM298.79,199c-4.64-1.9-11.38,10.53-15.17,19.38-4,8.64-7.37,21.28-.84,22.33,1.47.21,6.74-1.9,13.9-21.07C296.68,219.65,303.63,200.91,298.79,199Z" transform="translate(-140.47 -171.68)"/><path d="M345.55,248.51c-12.64,0-12.64-13.27-10.74-23.38,1.68-9.06,4.63-16.85,2.53-19a39.14,39.14,0,0,1-5.48-6.74c-.42,2.74-6.95,20.86-10.32,27.81-7.16,17.06-8.64,7.58-4.85-3,1.9-4.85,5.48-15,6.53-19,1.27-4.63,1.27-9.48,1.48-11.8-2.74-3.79-6.32-10.74-2.11-15.37,6.32-6.74,11-1.48,11.8,0,.63,1.47,1.05,9.9,3.58,15.16,2.31,5.27,13.48,9.27,10.32,20.65-3.16,13.27-4,25.06.21,25.27,8-.42,11.8-23.38,15-23.38C369.35,216.07,358.82,248.3,345.55,248.51Z" transform="translate(-140.47 -171.68)"/><path d="M385.36,201.75c-.42-5.48-9.06-2.74-15.59,13.27-5.89,14.32-5.68,24.65-2.1,25.91,3.58,1,8.63-7,13.9-20,4.42-11.17,8.22-12.64,12.22-10.11,1.26.84,3.16,2.52,2.31,3.58-6.31,9.48-8.63,25.28-4.84,26.33,4.84,1.26,13.9-19.17,15-23.59,0-.64.84-1.06,1.26-.64a6,6,0,0,1,2.11,5.48c-2.11,10.32-12.22,28.65-21.28,28-7.37,0-8.64-8.43-8.64-8.43s-2.31,6.32-8.63,7.8c-13.69,2.73-23-9.06-12.43-35.39,12.22-30.55,35-23.81,34.76-13.27-.21,7.58-5.06,7.37-7.38,6.74-.84-.21-1.89-1.27-1.47-1.9A7.23,7.23,0,0,0,385.36,201.75Z" transform="translate(-140.47 -171.68)"/><path d="M408.11,192.48c2.11-.84,8.22-1.9,9.06,3.37,1.05,7.16-6.53,28.86-6.53,28.86s6.11-32.65,19.8-32.65c9.48,0,5.48,15.59,3.79,22.33,5.27-19.17,12.85-22.33,16.22-22.75,9.9-.63,13.48,7.37,7.16,29.91-4,14.11-4.63,18.12-2.53,19.38,2.95,2.95,11-8,15.38-21.91,0,0,.42-4.21,3-.42,2.74,3.58-4.21,27-17.06,30.33-9.27,2.11-14.33-4.84-13.48-9.69.63-4.84,10.53-38.33,6.74-37.91-3.37.42-13.69,24-17.91,36.86-.63,2.53-8.42,4-9.27.21-.84-3.58,8.85-34.54,6.32-35.81-2.73-1.47-15.79,21.7-21.27,44-1.69,7.16-12.43,2.31-11.38-3.16.85-5.06,12.43-41.92,11.59-49.29C407.69,193.53,407.48,192.69,408.11,192.48Z" transform="translate(-140.47 -171.68)"/></svg>